<?xml version="1.0" encoding="UTF-8"?>
<!DOCTYPE svg PUBLIC "-//W3C//DTD SVG 1.1//EN" "http://www.w3.org/Graphics/SVG/1.1/DTD/svg11.dtd">
<svg xmlns="http://www.w3.org/2000/svg" version="1.1" width="1320px" height="1000px" style="shape-rendering:geometricPrecision; text-rendering:geometricPrecision; image-rendering:optimizeQuality; fill-rule:evenodd; clip-rule:evenodd" xmlns:xlink="http://www.w3.org/1999/xlink">
<g><path style="opacity:1" fill="#000000" d="M -0.5,-0.5 C 439.5,-0.5 879.5,-0.5 1319.5,-0.5C 1319.5,332.833 1319.5,666.167 1319.5,999.5C 879.5,999.5 439.5,999.5 -0.5,999.5C -0.5,666.167 -0.5,332.833 -0.5,-0.5 Z"/></g>
<g><path style="opacity:1" fill="#c9af69" d="M 364.5,369.5 C 371.311,369.635 377.977,370.635 384.5,372.5C 385.113,378.271 384.446,383.604 382.5,388.5C 376.642,386.659 370.642,385.659 364.5,385.5C 364.5,380.167 364.5,374.833 364.5,369.5 Z"/></g>
<g><path style="opacity:1" fill="#ddcd82" d="M 364.5,369.5 C 364.5,374.833 364.5,380.167 364.5,385.5C 357.874,385.658 351.54,386.991 345.5,389.5C 345.158,384.475 345.492,379.642 346.5,375C 345.437,373.812 344.103,373.312 342.5,373.5C 349.436,370.675 356.77,369.342 364.5,369.5 Z"/></g>
<g><path style="opacity:1" fill="#eee494" d="M 342.5,373.5 C 344.103,373.312 345.437,373.812 346.5,375C 345.492,379.642 345.158,384.475 345.5,389.5C 336.662,393.41 329.662,399.41 324.5,407.5C 323.373,406.878 322.373,406.045 321.5,405C 322.736,399.048 322.736,393.214 321.5,387.5C 327.287,381.1 334.287,376.433 342.5,373.5 Z"/></g>
<g><path style="opacity:1" fill="#b69554" d="M 384.5,372.5 C 392.165,374.992 398.832,378.992 404.5,384.5C 404.508,391.675 404.174,398.675 403.5,405.5C 397.821,398.166 390.821,392.499 382.5,388.5C 384.446,383.604 385.113,378.271 384.5,372.5 Z"/></g>
<g><path style="opacity:1" fill="#030301" d="M 364.5,385.5 C 370.642,385.659 376.642,386.659 382.5,388.5C 390.821,392.499 397.821,398.166 403.5,405.5C 412.818,420.63 413.818,436.297 406.5,452.5C 403.654,458.682 399.654,464.015 394.5,468.5C 388.992,472.587 382.992,475.587 376.5,477.5C 370.862,478.22 365.196,478.553 359.5,478.5C 333.156,473.654 319.49,457.82 318.5,431C 318.086,422.487 320.086,414.654 324.5,407.5C 329.662,399.41 336.662,393.41 345.5,389.5C 351.54,386.991 357.874,385.658 364.5,385.5 Z"/></g>
<g><path style="opacity:1" fill="#e4d689" d="M 321.5,387.5 C 322.736,393.214 322.736,399.048 321.5,405C 322.373,406.045 323.373,406.878 324.5,407.5C 320.086,414.654 318.086,422.487 318.5,431C 319.49,457.82 333.156,473.654 359.5,478.5C 360.404,483.953 360.404,489.286 359.5,494.5C 336.1,491.98 319.1,480.313 308.5,459.5C 309.452,457.888 309.786,456.388 309.5,455C 308.833,454.333 308.167,453.667 307.5,453C 308.619,437.774 308.619,422.274 307.5,406.5C 310.47,398.883 315.137,392.55 321.5,387.5 Z"/></g>
<g><path style="opacity:1" fill="#a67f42" d="M 404.5,384.5 C 419.989,396.316 427.655,412.149 427.5,432C 427.295,449.564 420.962,464.397 408.5,476.5C 407.832,468.499 407.832,460.666 408.5,453C 407.906,452.536 407.239,452.369 406.5,452.5C 413.818,436.297 412.818,420.63 403.5,405.5C 404.174,398.675 404.508,391.675 404.5,384.5 Z"/></g>
<g><path style="opacity:1" fill="#996b31" d="M 611.5,396.5 C 611.833,435.167 612.167,473.833 612.5,512.5C 603.161,512.666 593.827,512.5 584.5,512C 583.62,510.644 583.286,509.144 583.5,507.5C 587.603,508.231 591.103,507.231 594,504.5C 594.667,471.167 594.667,437.833 594,404.5C 591.016,401.9 587.516,400.9 583.5,401.5C 583.286,399.856 583.62,398.356 584.5,397C 593.494,396.5 602.494,396.334 611.5,396.5 Z"/></g>
<g><path style="opacity:1" fill="#9b7036" d="M 611.5,396.5 C 617.509,396.334 623.509,396.501 629.5,397C 630.833,398.333 630.833,399.667 629.5,401C 625.74,400.806 622.574,401.973 620,404.5C 619.333,437.833 619.333,471.167 620,504.5C 622.574,507.027 625.74,508.194 629.5,508C 630.833,509.333 630.833,510.667 629.5,512C 623.843,512.499 618.176,512.666 612.5,512.5C 612.167,473.833 611.833,435.167 611.5,396.5 Z"/></g>
<g><path style="opacity:1" fill="#e6da8d" d="M 785.5,396.5 C 785.833,435.167 786.167,473.833 786.5,512.5C 779.492,512.666 772.492,512.5 765.5,512C 764.167,510.667 764.167,509.333 765.5,508C 769.26,508.194 772.426,507.027 775,504.5C 775.667,471.167 775.667,437.833 775,404.5C 772.426,401.973 769.26,400.806 765.5,401C 764.167,399.667 764.167,398.333 765.5,397C 772.158,396.5 778.825,396.334 785.5,396.5 Z"/></g>
<g><path style="opacity:1" fill="#f1e696" d="M 785.5,396.5 C 793.84,396.334 802.173,396.5 810.5,397C 811.38,398.356 811.714,399.856 811.5,401.5C 807.397,400.769 803.897,401.769 801,404.5C 800.333,437.5 800.333,470.5 801,503.5C 801.465,504.931 802.299,506.097 803.5,507C 806.146,507.497 808.813,507.664 811.5,507.5C 811.714,509.144 811.38,510.644 810.5,512C 802.507,512.5 794.507,512.666 786.5,512.5C 786.167,473.833 785.833,435.167 785.5,396.5 Z"/></g>
<g><path style="opacity:1" fill="#e0d085" d="M 848.5,396.5 C 848.167,435.167 847.833,473.833 847.5,512.5C 838.827,512.666 830.16,512.5 821.5,512C 820.167,510.667 820.167,509.333 821.5,508C 825.159,508.037 828.326,506.871 831,504.5C 831.667,471.167 831.667,437.833 831,404.5C 828.326,402.129 825.159,400.963 821.5,401C 820.167,399.667 820.167,398.333 821.5,397C 830.494,396.5 839.494,396.334 848.5,396.5 Z"/></g>
<g><path style="opacity:1" fill="#dcc97e" d="M 848.5,396.5 C 861.167,396.5 873.833,396.5 886.5,396.5C 886.526,398.374 886.193,400.04 885.5,401.5C 876.827,401.334 868.16,401.5 859.5,402C 858.667,402.833 857.833,403.667 857,404.5C 856.5,419.496 856.333,434.496 856.5,449.5C 861.5,449.5 866.5,449.5 871.5,449.5C 872.048,450.688 872.381,451.855 872.5,453C 871.756,454.039 870.756,454.539 869.5,454.5C 865.167,454.5 860.833,454.5 856.5,454.5C 856.333,471.17 856.5,487.837 857,504.5C 857.833,505.333 858.667,506.167 859.5,507C 863.5,507.333 867.5,507.667 871.5,508C 872.833,509.333 872.833,510.667 871.5,512C 863.507,512.5 855.507,512.666 847.5,512.5C 847.833,473.833 848.167,435.167 848.5,396.5 Z"/></g>
<g><path style="opacity:1" fill="#bba15f" d="M 886.5,396.5 C 894.167,396.5 901.833,396.5 909.5,396.5C 909.667,407.172 909.5,417.839 909,428.5C 907.604,430.527 905.938,430.86 904,429.5C 905.048,415.101 898.882,405.768 885.5,401.5C 886.193,400.04 886.526,398.374 886.5,396.5 Z"/></g>
<g><path style="opacity:1" fill="#b69453" d="M 954.5,396.5 C 954.5,398.167 954.5,399.833 954.5,401.5C 935.666,401.167 926.166,410.5 926,429.5C 924.667,430.833 923.333,430.833 922,429.5C 921.5,418.505 921.333,407.505 921.5,396.5C 932.5,396.5 943.5,396.5 954.5,396.5 Z"/></g>
<g><path style="opacity:1" fill="#a57e41" d="M 954.5,396.5 C 961.167,396.5 967.833,396.5 974.5,396.5C 974.167,435.167 973.833,473.833 973.5,512.5C 965.16,512.666 956.827,512.5 948.5,512C 947.167,510.667 947.167,509.333 948.5,508C 951.903,507.9 955.07,507.066 958,505.5C 958.833,471.495 958.667,437.495 957.5,403.5C 956.482,402.807 955.482,402.141 954.5,401.5C 954.5,399.833 954.5,398.167 954.5,396.5 Z"/></g>
<g><path style="opacity:1" fill="#a2783c" d="M 974.5,396.5 C 983.167,396.5 991.833,396.5 1000.5,396.5C 1000.26,398.049 1000.26,399.549 1000.5,401C 999.906,401.464 999.239,401.631 998.5,401.5C 994.818,401.335 991.152,401.501 987.5,402C 986.069,402.465 984.903,403.299 984,404.5C 983.333,437.5 983.333,470.5 984,503.5C 984.374,504.416 984.874,505.25 985.5,506C 988.377,507.127 991.377,507.794 994.5,508C 995.925,509.714 995.592,511.047 993.5,512C 986.842,512.5 980.175,512.666 973.5,512.5C 973.833,473.833 974.167,435.167 974.5,396.5 Z"/></g>
<g><path style="opacity:1" fill="#8c5e27" d="M 1000.5,396.5 C 1007.5,396.5 1014.5,396.5 1021.5,396.5C 1021.67,407.172 1021.5,417.839 1021,428.5C 1019.45,431.003 1017.78,431.003 1016,428.5C 1017.15,414.757 1011.31,405.757 998.5,401.5C 999.239,401.631 999.906,401.464 1000.5,401C 1000.26,399.549 1000.26,398.049 1000.5,396.5 Z"/></g>
<g><path style="opacity:1" fill="#c3ac68" d="M 360.5,411.5 C 359.963,406.982 359.963,402.315 360.5,397.5C 361.473,399.948 361.806,402.615 361.5,405.5C 363.5,405.5 365.5,405.5 367.5,405.5C 367.337,403.143 367.503,400.81 368,398.5C 369.523,396.38 371.356,396.047 373.5,397.5C 374.167,400.833 374.833,404.167 375.5,407.5C 378.807,409.64 381.974,411.974 385,414.5C 386.167,418.667 384.667,420.167 380.5,419C 374.785,413.819 368.118,411.319 360.5,411.5 Z"/></g>
<g><path style="opacity:1" fill="#b49453" d="M 707.5,395.5 C 704.482,395.335 701.482,395.502 698.5,396C 698.167,397 697.833,398 697.5,399C 698.044,399.717 698.711,400.217 699.5,400.5C 686.419,404.075 677.585,412.408 673,425.5C 667.798,445.713 668.465,465.713 675,485.5C 682.112,501.143 694.279,508.143 711.5,506.5C 708.833,507.106 706.166,507.939 703.5,509C 703.5,510.333 703.5,511.667 703.5,513C 705.81,513.497 708.143,513.663 710.5,513.5C 691.083,516.729 674.083,511.729 659.5,498.5C 659.5,469.5 659.5,440.5 659.5,411.5C 672.94,398.353 688.94,393.02 707.5,395.5 Z"/></g>
<g><path style="opacity:1" fill="#d0ba73" d="M 707.5,395.5 C 724.015,395.833 736.182,403.166 744,417.5C 744.667,421.833 744.667,426.167 744,430.5C 741.166,437.666 735.999,440.166 728.5,438C 723.268,435.367 721.435,431.201 723,425.5C 725,422.833 727,420.167 729,417.5C 730.098,413.495 729.265,409.995 726.5,407C 718.198,402.069 709.198,399.902 699.5,400.5C 698.711,400.217 698.044,399.717 697.5,399C 697.833,398 698.167,397 698.5,396C 701.482,395.502 704.482,395.335 707.5,395.5 Z"/></g>
<g><path style="opacity:1" fill="#d7c57c" d="M 307.5,406.5 C 308.619,422.274 308.619,437.774 307.5,453C 308.167,453.667 308.833,454.333 309.5,455C 309.786,456.388 309.452,457.888 308.5,459.5C 303.954,450.995 301.954,441.828 302.5,432C 301.737,422.907 303.404,414.407 307.5,406.5 Z"/></g>
<g><path style="opacity:1" fill="#ae8a4a" d="M 659.5,411.5 C 659.5,440.5 659.5,469.5 659.5,498.5C 647.467,486.252 641.8,471.419 642.5,454C 641.438,436.996 647.105,422.83 659.5,411.5 Z"/></g>
<g><path style="opacity:1" fill="#ccb46e" d="M 869.5,454.5 C 870.756,454.539 871.756,454.039 872.5,453C 872.381,451.855 872.048,450.688 871.5,449.5C 879.545,446.454 883.378,440.454 883,431.5C 884.333,430.167 885.667,430.167 887,431.5C 887.5,445.496 887.667,459.496 887.5,473.5C 885.856,473.714 884.356,473.38 883,472.5C 883.532,462.552 879.032,456.552 869.5,454.5 Z"/></g>
<g><path style="opacity:1" fill="#dbca80" d="M 360.5,397.5 C 359.963,402.315 359.963,406.982 360.5,411.5C 343.689,419.131 340.189,430.798 350,446.5C 355.014,450.925 360.847,452.925 367.5,452.5C 368.8,454.223 369.467,456.39 369.5,459C 369.496,461.361 369.163,463.527 368.5,465.5C 368.5,465.167 368.5,464.833 368.5,464.5C 368.5,462.5 368.5,460.5 368.5,458.5C 366.5,458.5 364.5,458.5 362.5,458.5C 361.683,460.969 361.183,463.635 361,466.5C 359.612,467.554 358.112,467.72 356.5,467C 355.544,463.606 355.211,460.106 355.5,456.5C 346.602,453.762 341.102,447.762 339,438.5C 336.272,424.166 341.439,413.833 354.5,407.5C 355.324,404.215 355.824,400.882 356,397.5C 357.616,396.199 359.116,396.199 360.5,397.5 Z"/></g>
<g><path style="opacity:1" fill="#c5ad69" d="M 368.5,465.5 C 369.163,463.527 369.496,461.361 369.5,459C 369.467,456.39 368.8,454.223 367.5,452.5C 373.249,450.702 378.415,447.702 383,443.5C 384.833,444 386,445.167 386.5,447C 383.929,451.403 380.262,454.569 375.5,456.5C 374.676,459.785 374.176,463.118 374,466.5C 371.765,467.98 369.932,467.647 368.5,465.5 Z"/></g>
<g><path style="opacity:1" fill="#574e30" d="M 362.5,458.5 C 364.5,458.5 366.5,458.5 368.5,458.5C 368.5,460.5 368.5,462.5 368.5,464.5C 367.549,463.081 367.216,461.415 367.5,459.5C 365.585,459.784 363.919,459.451 362.5,458.5 Z"/></g>
<g><path style="opacity:1" fill="#b18f4f" d="M 406.5,452.5 C 407.239,452.369 407.906,452.536 408.5,453C 407.832,460.666 407.832,468.499 408.5,476.5C 404.909,480.299 400.909,483.633 396.5,486.5C 395.835,480.499 395.835,474.665 396.5,469C 395.906,468.536 395.239,468.369 394.5,468.5C 399.654,464.015 403.654,458.682 406.5,452.5 Z"/></g>
<g><path style="opacity:1" fill="#d3bd74" d="M 710.5,513.5 C 708.143,513.663 705.81,513.497 703.5,513C 703.5,511.667 703.5,510.333 703.5,509C 706.166,507.939 708.833,507.106 711.5,506.5C 715.197,505.992 718.864,505.326 722.5,504.5C 722.667,492.495 722.5,480.495 722,468.5C 721.5,466.667 720.333,465.5 718.5,465C 714.5,464.667 710.5,464.333 706.5,464C 705.483,462.951 705.316,461.784 706,460.5C 719.421,459.51 732.921,459.177 746.5,459.5C 746.833,473.849 746.499,488.182 745.5,502.5C 734.521,508.382 722.855,512.049 710.5,513.5 Z"/></g>
<g><path style="opacity:1" fill="#bda15e" d="M 394.5,468.5 C 395.239,468.369 395.906,468.536 396.5,469C 395.835,474.665 395.835,480.499 396.5,486.5C 390.717,489.391 384.717,491.725 378.5,493.5C 379.449,488.26 379.782,482.927 379.5,477.5C 378.5,477.5 377.5,477.5 376.5,477.5C 382.992,475.587 388.992,472.587 394.5,468.5 Z"/></g>
<g><path style="opacity:1" fill="#d2bc74" d="M 376.5,477.5 C 377.5,477.5 378.5,477.5 379.5,477.5C 379.782,482.927 379.449,488.26 378.5,493.5C 372.203,494.32 365.869,494.653 359.5,494.5C 360.404,489.286 360.404,483.953 359.5,478.5C 365.196,478.553 370.862,478.22 376.5,477.5 Z"/></g>
<g><path style="opacity:1" fill="#8f612a" d="M 257.5,492.5 C 252.833,492.5 248.167,492.5 243.5,492.5C 239.167,492.5 234.833,492.5 230.5,492.5C 230.5,520.833 230.5,549.167 230.5,577.5C 234.833,577.5 239.167,577.5 243.5,577.5C 247.5,577.5 251.5,577.5 255.5,577.5C 244.674,578.659 233.674,578.826 222.5,578C 221.667,577.167 220.833,576.333 220,575.5C 219.333,548.167 219.333,520.833 220,493.5C 220.75,492.874 221.584,492.374 222.5,492C 234.341,491.174 246.007,491.341 257.5,492.5 Z"/></g>
<g><path style="opacity:1" fill="#a1763a" d="M 243.5,492.5 C 243.5,520.833 243.5,549.167 243.5,577.5C 239.167,577.5 234.833,577.5 230.5,577.5C 230.5,549.167 230.5,520.833 230.5,492.5C 234.833,492.5 239.167,492.5 243.5,492.5 Z"/></g>
<g><path style="opacity:1" fill="#ab8547" d="M 243.5,492.5 C 248.167,492.5 252.833,492.5 257.5,492.5C 258.117,492.611 258.617,492.944 259,493.5C 259.667,521.167 259.667,548.833 259,576.5C 257.989,577.337 256.822,577.67 255.5,577.5C 251.5,577.5 247.5,577.5 243.5,577.5C 243.5,549.167 243.5,520.833 243.5,492.5 Z"/></g>
<g><path style="opacity:1" fill="#bfa15d" d="M 280.5,503.5 C 279.168,514.647 278.501,526.147 278.5,538C 278.51,549.907 278.843,561.74 279.5,573.5C 274.968,571.934 270.468,570.267 266,568.5C 265.5,546.169 265.333,523.836 265.5,501.5C 270.668,501.934 275.668,502.6 280.5,503.5 Z"/></g>
<g><path style="opacity:1" fill="#c8ae68" d="M 280.5,503.5 C 283.397,504.129 286.064,505.129 288.5,506.5C 288.177,530.241 288.511,553.908 289.5,577.5C 286.082,576.361 282.749,575.028 279.5,573.5C 278.843,561.74 278.51,549.907 278.5,538C 278.501,526.147 279.168,514.647 280.5,503.5 Z"/></g>
<g><path style="opacity:1" fill="#d2bb73" d="M 288.5,506.5 C 292.612,507.722 296.279,509.722 299.5,512.5C 298.761,512.369 298.094,512.536 297.5,513C 298.168,535.333 298.168,557.833 297.5,580.5C 294.828,579.499 292.162,578.499 289.5,577.5C 288.511,553.908 288.177,530.241 288.5,506.5 Z"/></g>
<g><path style="opacity:1" fill="#dbc87d" d="M 299.5,512.5 C 303.1,514.11 306.434,516.11 309.5,518.5C 308.761,518.369 308.094,518.536 307.5,519C 308.598,539.784 308.598,560.618 307.5,581.5C 304.061,581.747 300.728,581.414 297.5,580.5C 298.168,557.833 298.168,535.333 297.5,513C 298.094,512.536 298.761,512.369 299.5,512.5 Z"/></g>
<g><path style="opacity:1" fill="#e7d98b" d="M 309.5,518.5 C 318.642,522.859 328.309,525.193 338.5,525.5C 342.312,526.324 346.312,526.824 350.5,527C 349.402,534.451 349.402,541.951 350.5,549.5C 338.789,549.767 327.122,550.601 315.5,552C 314.167,553.667 314.167,555.333 315.5,557C 321.833,557.234 328.166,557.068 334.5,556.5C 331.5,557.093 328.5,557.926 325.5,559C 326.598,566.451 326.598,573.951 325.5,581.5C 319.5,581.5 313.5,581.5 307.5,581.5C 308.598,560.618 308.598,539.784 307.5,519C 308.094,518.536 308.761,518.369 309.5,518.5 Z"/></g>
<g><path style="opacity:1" fill="#ccb46e" d="M 362.5,524.5 C 368.289,522.618 373.622,523.618 378.5,527.5C 381.374,533.095 380.707,538.262 376.5,543C 372.812,544.513 369.145,546.013 365.5,547.5C 365.161,539.817 365.495,532.317 366.5,525C 365.207,524.51 363.873,524.343 362.5,524.5 Z"/></g>
<g><path style="opacity:1" fill="#dac87d" d="M 362.5,524.5 C 363.873,524.343 365.207,524.51 366.5,525C 365.495,532.317 365.161,539.817 365.5,547.5C 360.595,548.572 355.595,549.238 350.5,549.5C 349.402,541.951 349.402,534.451 350.5,527C 346.312,526.824 342.312,526.324 338.5,525.5C 346.521,525.558 354.521,525.224 362.5,524.5 Z"/></g>
<g><path style="opacity:1" fill="#996d33" d="M 421.5,551.5 C 422.487,545.851 422.821,540.351 422.5,535C 421.956,534.283 421.289,533.783 420.5,533.5C 424.939,531.463 429.606,529.796 434.5,528.5C 442.997,530.503 444.664,535.003 439.5,542C 433.631,545.434 427.631,548.601 421.5,551.5 Z"/></g>
<g><path style="opacity:1" fill="#a57d40" d="M 420.5,533.5 C 421.289,533.783 421.956,534.283 422.5,535C 422.821,540.351 422.487,545.851 421.5,551.5C 417.728,553.934 413.728,555.934 409.5,557.5C 409.666,551.158 409.5,544.825 409,538.5C 408.667,539.167 408.333,539.833 408,540.5C 407.329,539.748 406.496,539.414 405.5,539.5C 410.105,536.738 415.105,534.738 420.5,533.5 Z"/></g>
<g><path style="opacity:1" fill="#b59453" d="M 409.5,557.5 C 402.522,561.992 395.188,565.992 387.5,569.5C 387.859,567.629 388.859,566.129 390.5,565C 390.5,559.667 390.5,554.333 390.5,549C 389.529,547.519 388.196,546.685 386.5,546.5C 392.668,543.925 399.001,541.591 405.5,539.5C 406.496,539.414 407.329,539.748 408,540.5C 408.333,539.833 408.667,539.167 409,538.5C 409.5,544.825 409.666,551.158 409.5,557.5 Z"/></g>
<g><path style="opacity:1" fill="#715d34" d="M 612.5,547.5 C 614.482,547.995 616.482,548.495 618.5,549C 617.975,549.692 617.308,550.192 616.5,550.5C 614.885,549.846 613.218,549.346 611.5,549C 612.056,548.617 612.389,548.117 612.5,547.5 Z"/></g>
<g><path style="opacity:1" fill="#ccb46d" d="M 386.5,546.5 C 388.196,546.685 389.529,547.519 390.5,549C 390.5,554.333 390.5,559.667 390.5,565C 388.859,566.129 387.859,567.629 387.5,569.5C 379.03,574.906 370.03,578.906 360.5,581.5C 361.568,580.566 362.901,580.232 364.5,580.5C 364.5,572.167 364.5,563.833 364.5,555.5C 371.435,551.738 378.769,548.738 386.5,546.5 Z"/></g>
<g><path style="opacity:1" fill="#805422" d="M 486.5,551.5 C 488.827,551.247 490.827,551.914 492.5,553.5C 490.674,553.92 488.674,553.92 486.5,553.5C 486.5,554.5 486.5,555.5 486.5,556.5C 491.764,556.417 493.431,558.75 491.5,563.5C 489.031,565.007 486.865,564.673 485,562.5C 484.312,561.668 484.479,561.002 485.5,560.5C 487.6,563.129 489.6,563.129 491.5,560.5C 489.434,559.094 487.268,557.76 485,556.5C 484.387,554.505 484.887,552.838 486.5,551.5 Z"/></g>
<g><path style="opacity:1" fill="#856736" d="M 568.5,551.5 C 571.572,551.183 574.572,551.516 577.5,552.5C 575.604,553.466 573.604,553.799 571.5,553.5C 571.5,554.5 571.5,555.5 571.5,556.5C 578.167,557.167 578.167,557.833 571.5,558.5C 571.5,559.5 571.5,560.5 571.5,561.5C 573.604,561.201 575.604,561.534 577.5,562.5C 574.572,563.484 571.572,563.817 568.5,563.5C 568.5,559.5 568.5,555.5 568.5,551.5 Z"/></g>
<g><path style="opacity:1" fill="#cbc17d" d="M 777.5,551.5 C 780.247,551.187 782.914,551.52 785.5,552.5C 783.604,553.466 781.604,553.799 779.5,553.5C 779.5,554.5 779.5,555.5 779.5,556.5C 786.167,557.167 786.167,557.833 779.5,558.5C 779.5,559.5 779.5,560.5 779.5,561.5C 781.604,561.201 783.604,561.534 785.5,562.5C 782.914,563.48 780.247,563.813 777.5,563.5C 777.5,559.5 777.5,555.5 777.5,551.5 Z"/></g>
<g><path style="opacity:1" fill="#6b5d37" d="M 949.5,552.5 C 947.167,552.5 944.833,552.5 942.5,552.5C 942.5,556.167 942.5,559.833 942.5,563.5C 941.517,559.702 941.183,555.702 941.5,551.5C 944.385,551.194 947.052,551.527 949.5,552.5 Z"/></g>
<g><path style="opacity:1" fill="#9b8048" d="M 983.5,551.5 C 986.572,551.183 989.572,551.516 992.5,552.5C 991.675,553.386 990.675,553.719 989.5,553.5C 989.5,556.167 989.5,558.833 989.5,561.5C 990.675,561.281 991.675,561.614 992.5,562.5C 986.116,563.666 984.449,563.666 987.5,562.5C 987.5,559.5 987.5,556.5 987.5,553.5C 985.517,553.843 984.183,553.176 983.5,551.5 Z"/></g>
<g><path style="opacity:1" fill="#9a7840" d="M 1025.5,551.5 C 1027.86,551.337 1030.19,551.503 1032.5,552C 1036.2,557.841 1034.53,560.341 1027.5,559.5C 1027.76,560.978 1027.43,562.311 1026.5,563.5C 1025.51,559.555 1025.18,555.555 1025.5,551.5 Z"/></g>
<g><path style="opacity:1" fill="#8c6631" d="M 1066.5,551.5 C 1069.9,551.18 1073.23,551.513 1076.5,552.5C 1075.31,553.429 1073.98,553.762 1072.5,553.5C 1071.83,566.833 1071.17,566.833 1070.5,553.5C 1068.52,553.843 1067.18,553.176 1066.5,551.5 Z"/></g>
<g><path style="opacity:1" fill="#0f0b04" d="M 1027.5,553.5 C 1029.17,553.5 1030.83,553.5 1032.5,553.5C 1032.5,554.833 1032.5,556.167 1032.5,557.5C 1030.83,557.5 1029.17,557.5 1027.5,557.5C 1027.5,556.167 1027.5,554.833 1027.5,553.5 Z"/></g>
<g><path style="opacity:1" fill="#b4a264" d="M 902.5,551.5 C 904.827,551.247 906.827,551.914 908.5,553.5C 906.657,553.755 904.657,553.922 902.5,554C 900.327,555.865 899.993,558.031 901.5,560.5C 903.766,561.314 906.1,561.814 908.5,562C 904.871,565.477 901.704,564.977 899,560.5C 897.665,556.392 898.832,553.392 902.5,551.5 Z"/></g>
<g><path style="opacity:1" fill="#7f5422" d="M 1112.5,551.5 C 1117.71,550.762 1120.71,552.928 1121.5,558C 1120.09,563.141 1116.76,564.808 1111.5,563C 1108.68,558.899 1109.01,555.065 1112.5,551.5 Z"/></g>
<g><path style="opacity:1" fill="#070301" d="M 1113.5,553.5 C 1118.71,553.369 1120.37,555.702 1118.5,560.5C 1111.37,562.27 1109.7,559.936 1113.5,553.5 Z"/></g>
<g><path style="opacity:1" fill="#dfce82" d="M 364.5,555.5 C 364.5,563.833 364.5,572.167 364.5,580.5C 362.901,580.232 361.568,580.566 360.5,581.5C 354.5,581.5 348.5,581.5 342.5,581.5C 342.5,573.167 342.5,564.833 342.5,556.5C 349.804,555.698 357.138,555.365 364.5,555.5 Z"/></g>
<g><path style="opacity:1" fill="#a99256" d="M 656.5,551.5 C 662.653,551.484 665.486,554.484 665,560.5C 661.61,564.032 657.943,564.366 654,561.5C 653.219,560.271 652.719,558.938 652.5,557.5C 653.432,555.235 654.765,553.235 656.5,551.5 Z"/></g>
<g><path style="opacity:1" fill="#13110a" d="M 656.5,553.5 C 663.004,553.138 664.671,555.638 661.5,561C 654.798,561.802 653.132,559.302 656.5,553.5 Z"/></g>
<g><path style="opacity:1" fill="#f1e797" d="M 334.5,556.5 C 337.167,556.5 339.833,556.5 342.5,556.5C 342.5,564.833 342.5,573.167 342.5,581.5C 336.833,581.5 331.167,581.5 325.5,581.5C 326.598,573.951 326.598,566.451 325.5,559C 328.5,557.926 331.5,557.093 334.5,556.5 Z"/></g>
<g><path style="opacity:1" fill="#a0834a" d="M 610.5,551.5 C 613.474,553.327 615.641,555.993 617,559.5C 617.182,556.774 617.682,554.107 618.5,551.5C 619.491,555.445 619.824,559.445 619.5,563.5C 618.325,563.719 617.325,563.386 616.5,562.5C 613.461,554.284 611.794,554.617 611.5,563.5C 610.509,559.555 610.176,555.555 610.5,551.5 Z"/></g>
<g><path style="opacity:1" fill="#beb575" d="M 818.5,551.5 C 820.017,551.511 821.184,552.177 822,553.5C 825.049,560.03 826.215,559.363 825.5,551.5C 826.5,551.5 827.5,551.5 828.5,551.5C 828.5,555.5 828.5,559.5 828.5,563.5C 827.178,563.67 826.011,563.337 825,562.5C 823.414,560.33 822.08,557.996 821,555.5C 820.818,558.226 820.318,560.893 819.5,563.5C 818.509,559.555 818.176,555.555 818.5,551.5 Z"/></g>
<g><path style="opacity:1" fill="#a58e54" d="M 949.5,552.5 C 952.112,554.897 952.112,557.397 949.5,560C 950.452,561.3 950.452,562.467 949.5,563.5C 948.5,561.833 947.167,560.5 945.5,559.5C 944.943,561.332 943.943,562.665 942.5,563.5C 942.5,559.833 942.5,556.167 942.5,552.5C 944.833,552.5 947.167,552.5 949.5,552.5 Z"/></g>
<g><path style="opacity:1" fill="#020201" d="M 944.5,553.5 C 945.833,553.5 947.167,553.5 948.5,553.5C 948.5,554.833 948.5,556.167 948.5,557.5C 947.167,557.5 945.833,557.5 944.5,557.5C 944.5,556.167 944.5,554.833 944.5,553.5 Z"/></g>
<g><path style="opacity:1" fill="#8b6530" d="M 525.5,551.5 C 527.237,554.008 528.07,557.008 528,560.5C 529.396,562.527 531.062,562.86 533,561.5C 533.176,558.118 533.676,554.785 534.5,551.5C 535.764,555.18 535.764,558.847 534.5,562.5C 531.966,563.777 529.466,563.777 527,562.5C 525.663,558.974 525.163,555.308 525.5,551.5 Z"/></g>
<g><path style="opacity:1" fill="#b6a365" d="M 699.5,551.5 C 702.346,551.03 704.679,551.863 706.5,554C 704.575,553.865 702.575,553.698 700.5,553.5C 700.5,554.5 700.5,555.5 700.5,556.5C 706.488,556.664 707.821,559.164 704.5,564C 700.891,565.131 699.057,563.965 699,560.5C 700.444,562.155 702.278,562.822 704.5,562.5C 704.649,561.448 704.483,560.448 704,559.5C 699.182,558.545 697.682,555.879 699.5,551.5 Z"/></g>
</svg>
