<svg xmlns="http://www.w3.org/2000/svg" width="93" height="48" fill="none" viewBox="0 0 93 48"><path fill="#fff" fill-rule="evenodd" d="M29.095 14.601c-.999 1.618-2.385 2.995-5.847 3.013-4.588.181-6.06-2.193-6.638-3.502-.58-1.31-1.315-4.017-6.045-3.921-3.357.067-4.993 2.59-5.661 4.05a6 6 0 0 0-.473 1.685l-.112.865-1.073 8.298-.666 10.656s-.938.281-.938 2.278V44.3c0 1.15 1.044 2.7 2.55 2.7h69.06c8.88 0 17.028-2.675 18.635-6.708.188-.47.287-.96.287-1.466 0-3.22-1.838-5.238-3.067-6.229a5.3 5.3 0 0 0-1.87-.959c-2.045-.584-7.635-2.214-11.46-3.657-1.562-.588-4.765-1.987-8.61-3.738 0 0-18.527-8.608-24.313-11.918 0 0-.423-.258-.591-.368-6.052-3.971-10.68-8.4-12.733-10.497a1.532 1.532 0 0 0-2.353.2c-.726 1.04-1.565 2.598-1.837 4.514-.512 3.92 2.074 7.791 4.001 8.654" clip-rule="evenodd"/><path stroke="#333" stroke-width="1.5" d="M29.095 14.601c-.999 1.618-2.385 2.995-5.847 3.013-4.588.181-6.06-2.193-6.638-3.502-.58-1.31-1.315-4.017-6.045-3.921-3.357.067-4.993 2.59-5.661 4.05a6 6 0 0 0-.473 1.685l-.112.865-1.073 8.298-.666 10.656s-.938.281-.938 2.278V44.3c0 1.15 1.044 2.7 2.55 2.7h69.06c8.88 0 17.028-2.675 18.635-6.708.188-.47.287-.96.287-1.466 0-3.22-1.838-5.238-3.067-6.229a5.3 5.3 0 0 0-1.87-.959c-2.045-.584-7.635-2.214-11.46-3.657-1.562-.588-4.765-1.987-8.61-3.738 0 0-18.527-8.608-24.313-11.918 0 0-.423-.258-.591-.368-6.052-3.971-10.68-8.4-12.733-10.497a1.532 1.532 0 0 0-2.353.2c-.726 1.04-1.565 2.598-1.837 4.514-.512 3.92 2.074 7.791 4.001 8.654"/><path stroke="#333" stroke-width="1.5" d="M2.387 35.745c.197.04 14.433.08 14.622.122 3.283.725 2.797 1.629 4.424 3.018 1.59 1.357 3.288 1.938 4.666 1.734l65.33.92M76.393 28.152a12.3 12.3 0 0 1-9.305.695c-6.79-2.204-21.947-8.477-27.024-11.258-1.798-.986-2.061-3.141-2.663-4.637-.4-.998-1.076-1.867-1.988-2.404-.986-.58-2.325-.876-3.743.256-1.315 1.05-1.878 2.608-2.737 3.982"/><path fill="#FFE600" stroke="#fff" stroke-width="3" d="m60.412 28.028-.691.921-7.928 10.57-17.504-.237L51.48 24.669z"/><path stroke="#333" stroke-width="1.5" d="m52.535 41.03 8.385-11.18 1.892-2.522-11.63-4.373-20.91 17.772z" clip-rule="evenodd"/><path stroke="#333" stroke-width="1.5" d="M86.182 31.243c-.345.383-.739.77-1.183 1.132-.578.472-1.24.9-1.987 1.223-3.314 1.433-5.523.222-11.82 1.873-2.247.59-3.932 2.22-5.169 4.07-.325.486-.62.987-.883 1.489M49.095 18.504l1.468-2.446m3.189 4.739 1.468-2.446m3.402 4.893 1.468-2.447m3.065 4.894 1.468-2.447"/></svg>