<svg xmlns="http://www.w3.org/2000/svg" width="98" height="65" fill="none" viewBox="0 0 98 65"><path fill="#fff" fill-rule="evenodd" stroke="#333" stroke-width="1.5" d="M74.15 63.379V31.072L44.857 2.319a2 2 0 0 0-2.81.008L13.082 31.072l.255 32.307z" clip-rule="evenodd"/><path fill="#fff" fill-rule="evenodd" d="M81.543 64.024H69.164c-.612 0-1.309-.234-1.856-1.093-.547-.858-.46-3.409 1.029-3.576.415-2.168 1.757-3.203 4.044-3.203h.105a7.818 7.818 0 0 1 15.432-2.083q.587-.12 1.211-.121a6.01 6.01 0 0 1 5.897 4.87c1.904.214 2.166 2.93 1.87 3.793s-.66 1.413-1.444 1.413z" clip-rule="evenodd"/><path fill="#333" d="M81.543 64.024v-.75h-.007zM67.308 62.93l-.632.404zm1.029-3.576.084.745.548-.062.104-.542zm4.15-3.202-.017.75.8.017-.035-.799zm15.431-2.083-.73.167.162.716.72-.148zm7.108 4.748-.737.141.104.542.55.062zm1.87 3.793-.709-.244zm-15.36.663h-.002v1.5h.015zm-.002 0h-12.37v1.5h12.37zm-12.37 0c-.382 0-.827-.124-1.223-.745l-1.265.806c.698 1.095 1.646 1.439 2.488 1.439zm-1.223-.745c-.054-.086-.13-.284-.168-.588a3.1 3.1 0 0 1 .024-.923c.123-.674.396-.892.624-.918l-.168-1.49c-1.26.141-1.775 1.282-1.931 2.14a4.6 4.6 0 0 0-.037 1.377c.053.421.172.863.391 1.208zm1.132-3.033c.184-.958.553-1.577 1.048-1.966.5-.394 1.225-.628 2.26-.628v-1.5c-1.252 0-2.342.283-3.188.95-.851.669-1.361 1.652-1.593 2.861zm3.308-2.594h.088l.034-1.499-.122-.001zm.854-.78a7 7 0 0 1-.006-.304h-1.5q0 .184.008.367zm-.006-.304a7.07 7.07 0 0 1 7.068-7.068v-1.5a8.57 8.57 0 0 0-8.568 8.568zm7.068-7.068a7.07 7.07 0 0 1 6.89 5.487l1.462-.334a8.57 8.57 0 0 0-8.352-6.653zm7.772 6.055q.514-.106 1.06-.107v-1.5a7 7 0 0 0-1.362.138zm1.06-.107a5.26 5.26 0 0 1 5.16 4.261l1.474-.282a6.76 6.76 0 0 0-6.634-5.48zm5.813 4.865c.532.06.908.459 1.132 1.142.108.33.163.687.173 1.004.011.331-.027.562-.06.658l1.419.487c.115-.335.155-.767.14-1.195a5.2 5.2 0 0 0-.247-1.421c-.31-.945-1.017-2.01-2.39-2.165zm1.245 2.804c-.14.408-.264.639-.381.766-.083.09-.17.14-.353.14v1.5c.6 0 1.087-.223 1.456-.624.335-.364.54-.84.697-1.295zm-.734.907h-13.91v1.5h13.91z"/><path stroke="#333" stroke-width="1.5" d="m76 33-1.85-1.928L44.857 2.319a2 2 0 0 0-2.81.008L13.082 31.072 11 33"/><path fill="#fff" fill-rule="evenodd" stroke="#333" stroke-width="1.5" d="M5.149 63.652c-2.305 0-4.174-1.86-4.174-4.156s1.869-4.155 4.174-4.155c.647 0 1.26.146 1.807.408A5.85 5.85 0 0 1 12.424 52c3.232 0 5.852 2.608 5.852 5.826 0 3.148-2.507 5.712-5.642 5.822l-.21.004z" clip-rule="evenodd"/><path stroke="#333" stroke-width="1.5" d="m38.283 22.965-.036-4.226c0-2.298 2.136-4.16 4.772-4.16 2.635 0 4.771 1.862 4.771 4.16l.036 4.226z" clip-rule="evenodd"/><path stroke="#333" stroke-width="1.5" d="M36.398 22.965h12.928"/><mask id="a" fill="#fff"><path fill-rule="evenodd" d="m20.124 44.777.072 18.418h19.086l-.071-18.418c0-4.596-4.273-8.32-9.544-8.32-5.27 0-9.543 3.724-9.543 8.32m46.285-7.887H46.878v17.36h19.53z" clip-rule="evenodd"/></mask><path fill="#FFE600" fill-rule="evenodd" d="m20.124 44.777.072 18.418h19.086l-.071-18.418c0-4.596-4.273-8.32-9.544-8.32-5.27 0-9.543 3.724-9.543 8.32m46.285-7.887H46.878v17.36h19.53z" clip-rule="evenodd"/><path fill="#fff" d="m20.196 63.195-3 .012.011 2.988h2.989zm-.072-18.418h-3v.011zm19.158 18.418v3h3.012l-.012-3.012zm-.071-18.418h-3v.011zm7.667-7.887v-3h-3v3zm19.53 0h3v-3h-3zm-19.53 17.36h-3v3h3zm19.53 0v3h3v-3zm-43.212 8.933-.072-18.418-6 .023.072 18.419zm16.086-2.988H20.196v6h19.086zm-3.071-15.407.071 18.419 6-.024-.071-18.418zm-6.544-5.332c4.014 0 6.544 2.755 6.544 5.32h6c0-6.625-6.016-11.32-12.544-11.32zm-6.543 5.32c0-2.565 2.53-5.32 6.543-5.32v-6c-6.528 0-12.543 4.695-12.543 11.32zm23.754-4.886h19.53v-6h-19.53zm3 14.36V36.89h-6v17.36zm16.53-3h-19.53v6h19.53zm-3-14.36v17.36h6V36.89z" mask="url(#a)"/><path stroke="#333" stroke-width="1.5" d="M46.878 36.89h19.531v17.361H46.878z"/><path stroke="#333" stroke-width="1.5" d="m20.197 63.365-.072-18.588c0-4.596 4.273-8.32 9.543-8.32s9.544 3.724 9.544 8.32l.071 18.588z" clip-rule="evenodd"/><path stroke="#333" stroke-width="1.5" d="M33.509 53.306v-3.318m11.871 4.263h22.526"/></svg>