<svg xmlns="http://www.w3.org/2000/svg" width="74" height="58" fill="none" viewBox="0 0 74 58"><path fill="#fff" fill-rule="evenodd" stroke="#333" stroke-width="1.5" d="M1 14.515h4.802s2.88-.116 4.605 3.095c1.725 3.21-1.157 3.522-1.157 3.522H1zm72.065 0h-4.803s-2.88-.116-4.605 3.095c-1.724 3.21 1.157 3.522 1.157 3.522h8.25z" clip-rule="evenodd"/><rect width="9.797" height="13.151" x="7.152" y="43.482" fill="#fff" stroke="#333" stroke-width="1.5" rx="3"/><path stroke="#333" stroke-width="1.5" d="m9.73 57.129.776-2.205-.777-2.2.777-2.203-.777-2.203.777-2.197-.777-2.201m3.624 13.209.776-2.205-.777-2.2.777-2.203-.777-2.203.777-2.197-.777-2.201"/><rect width="9.797" height="13.151" x="56.68" y="43.431" fill="#fff" stroke="#333" stroke-width="1.5" rx="3"/><path stroke="#333" stroke-width="1.5" d="m59.379 56.942.776-2.204-.776-2.201.776-2.203-.776-2.202.776-2.198-.776-2.2m3.623 13.208.776-2.204-.776-2.201.776-2.203-.776-2.202.776-2.198-.776-2.2"/><path fill="#fff" fill-rule="evenodd" d="M36.685 1.174s-8.482-.028-12.746.926c-4.265.953-4.952.953-7.524 3.606-1.892 1.95-7.967 14.648-11.049 21.23a19.55 19.55 0 0 0-1.83 8.305v2.854l-.925 1.81v4.773a4 4 0 0 0 4 4H66.76a4 4 0 0 0 4-4v-4.773l-.924-1.81v-2.688a20 20 0 0 0-1.948-8.61L57.83 5.707S55.562 3.026 50.84 2.1s-14.155-.926-14.155-.926" clip-rule="evenodd"/><path fill="#EEE" fill-rule="evenodd" d="M2.611 41.244v3.289a4 4 0 0 0 4 4H66.76a4 4 0 0 0 4-4v-3.289a4 4 0 0 1-4 4H6.611a4 4 0 0 1-4-4" clip-rule="evenodd" style="mix-blend-mode:multiply"/><path stroke="#333" stroke-width="1.5" d="M36.685 1.174s-8.482-.028-12.746.926c-4.265.953-4.952.953-7.524 3.606-1.892 1.95-7.967 14.648-11.049 21.23a19.55 19.55 0 0 0-1.83 8.305v2.854l-.925 1.81v4.773a4 4 0 0 0 4 4H66.76a4 4 0 0 0 4-4v-4.773l-.924-1.81v-2.688a20 20 0 0 0-1.948-8.61L57.83 5.707S55.562 3.026 50.84 2.1s-14.155-.926-14.155-.926Z" clip-rule="evenodd"/><rect width="14.712" height="4.572" x="29.352" y="40.507" stroke="#333" stroke-width="1.5" rx="1"/><path stroke="#333" stroke-width="1.5" d="M30.782 36.249h11.813m-11.813-2.591h11.813"/><path fill="#FFE600" stroke="#fff" stroke-width="3" d="M36.59 3.443h.099a105 105 0 0 1 1.325.01c.884.01 2.108.03 3.467.069 2.741.08 5.951.237 8.05.54 2.022.294 3.492.86 4.436 1.333a9 9 0 0 1 1.087.638l6.29 12.627a1.5 1.5 0 0 1-1.342 2.169H12.997c-1.1 0-1.785-1.117-1.329-2.068 1.128-2.35 2.58-5.287 3.942-7.777.681-1.248 1.328-2.362 1.893-3.228.606-.93 1-1.387 1.162-1.51 1.141-.869 1.741-1.208 2.46-1.44.707-.23 1.547-.368 3.105-.623l.762-.125c1.873-.309 4.744-.466 7.211-.543a153 153 0 0 1 4.3-.072h.086ZM55.262 6.19l-.002-.002z"/><path stroke="#333" stroke-width="1.5" d="M9.47 18.238c-.729 1.51-.07 3.31 1.472 4.024.412.19.862.29 1.318.29h48.756c1.705 0 3.087-1.354 3.087-3.023 0-.468-.11-.93-.324-1.35"/><path stroke="#333" stroke-width="1.5" d="M55.292 22.329c0-4.4-3.65-7.968-8.15-7.968-4.503 0-8.152 3.567-8.152 7.968"/><path stroke="#333" stroke-width="1.5" d="M22.62 33.387 9.373 28.35s-1.062 5.807 2.883 6.896 7.505.951 7.505.951zm28.758 0 13.245-5.037s1.062 5.807-2.883 6.896-7.505.951-7.505.951z" clip-rule="evenodd"/><path stroke="#333" stroke-width="1.5" d="M3.716 38.489h4.62m57.392 0h4.62"/></svg>